<svg version="1.1" id="1282419828" xmlns="http://www.w3.org/2000/svg" xmlns:xlink="http://www.w3.org/1999/xlink" x="0px" y="0px" viewBox="0 0 70 70" style="enable-background:new 0 0 70 70;" xml:space="preserve" class="svg u_1282419828" data-icon-custom="true" data-icon-name="QUOTE-01.svg"> <path d="M45.4,49.5c3.5,0,6.5-2.9,6.5-6.6c0-3.7-2.9-6.6-6.5-6.6c-6.5,0-2.2-12.8,6.5-12.8v-3.1C36.5,20.5,30.5,49.5,45.4,49.5
	L45.4,49.5z M26.8,49.5c3.5,0,6.5-2.9,6.5-6.6c0-3.7-2.9-6.6-6.5-6.6c-6.5,0-2.2-12.8,6.5-12.8v-3.1C17.9,20.5,11.9,49.5,26.8,49.5
	L26.8,49.5z" id="1848840046"></path> 
</svg>