<svg xmlns="http://www.w3.org/2000/svg" viewBox="0 0 70 70" id="1118385936" class="svg u_1118385936" data-icon-name="wp-alarm_clock"> <g> <path d="M26.6,12.7c0-0.3-0.1-0.5-0.2-0.7c-2.5-3-7.8-2.6-12,1c-4.2,3.5-5.6,8.7-3,11.7c0.2,0.2,0.4,0.3,0.7,0.4c0,0,0.1,0,0.1,0
		c0.2,0,0.5-0.1,0.6-0.2l13.6-11.4C26.4,13.2,26.5,13,26.6,12.7z"></path> 
 <path d="M55.7,13c-4.2-3.5-9.5-4-12-1c-0.2,0.2-0.3,0.5-0.2,0.7c0,0.3,0.1,0.5,0.4,0.7l13.6,11.4c0.2,0.2,0.4,0.2,0.6,0.2
		c0,0,0.1,0,0.1,0c0.3,0,0.5-0.2,0.7-0.4C61.3,21.6,59.9,16.5,55.7,13z"></path> 
 <path d="M35,16c-12.1,0-22,9.9-22,22c0,5.8,2.2,11,5.9,14.9l-2.7,4.5c-0.3,0.5-0.1,1.1,0.3,1.4C16.6,59,16.8,59,17,59
		c0.3,0,0.7-0.2,0.9-0.5l2.5-4.1c3.9,3.5,9,5.6,14.7,5.6c5.6,0,10.8-2.1,14.7-5.6l2.5,4.1c0.2,0.3,0.5,0.5,0.9,0.5
		c0.2,0,0.4,0,0.5-0.1c0.5-0.3,0.6-0.9,0.3-1.4l-2.7-4.5C54.8,49,57,43.8,57,38C57,25.9,47.1,16,35,16z M15,38c0-11,9-20,20-20
		c11,0,20,9,20,20s-9,20-20,20C24,58,15,49,15,38z"></path> 
 <path d="M35,20c-9.9,0-18,8.1-18,18c0,9.9,8.1,18,18,18c9.9,0,18-8.1,18-18C53,28.1,44.9,20,35,20z M36,38c0,0.3-0.1,0.5-0.3,0.7
		l-7,7C28.5,45.9,28.3,46,28,46c-0.3,0-0.5-0.1-0.7-0.3c-0.4-0.4-0.4-1,0-1.4l6.7-6.7V25c0-0.6,0.4-1,1-1c0.6,0,1,0.4,1,1V38z"></path> 
</g> 
</svg>